<svg width="173" height="166" viewBox="0 0 173 166" fill="none" xmlns="http://www.w3.org/2000/svg">
<path d="M31.5401 50.9374C28.5094 52.2039 24.7082 54.1882 20.907 57.3192C12.893 63.9223 9.49064 71.8272 8.08101 75.9373C7.05422 79.1082 6.10913 83.2336 5.97458 88.086C5.68624 98.4149 9.22634 106.417 11.5186 110.633C13.5177 114.208 18.6324 122.147 28.7866 127.354C45.2216 135.78 61.6197 130.264 64.3541 129.296L57.3123 112.33C55.0441 113.161 50.317 114.534 44.56 113.499C34.2969 111.653 29.1133 103.656 28.2515 102.276C27.5083 101.051 21.8746 91.4014 26.3629 80.6529C29.5667 72.98 36.0045 69.3542 37.9828 68.3336L31.5401 50.9374Z" fill="white"/>
<path d="M35.1348 49.6432C37.2236 55.3733 39.3124 61.1019 41.4028 66.8319C42.4232 66.4615 54.4707 62.3207 65.1294 69.5448C72.8424 74.7723 77.0424 83.9929 75.3813 93.1429C73.1787 105.269 61.9241 110.445 60.9086 110.893C63.3226 116.481 65.7365 122.071 68.1505 127.66C70.2025 126.763 72.4723 125.579 74.8062 124.013C80.7459 120.026 84.4718 115.315 86.6808 111.899C89.1668 115.59 92.9216 120.038 98.4432 123.921C101.064 125.763 110.568 132.262 123.717 132.486C125.13 132.511 126.309 132.457 127.14 132.402C130.539 132.01 144.865 129.94 155.615 117.903C167.597 104.486 166.206 88.7301 165.795 84.8691C165.526 82.3376 163.286 64.2697 146.644 53.9147C135.968 47.2716 125.096 47.37 120.992 47.6113C117.146 47.7957 108.836 48.7133 100.625 54.1806C95.6367 57.5021 92.4538 61.3247 90.5749 64.0222L99.5645 86.5952C101.435 76.7089 108.903 68.9131 118.41 66.8842C129.336 64.551 137.756 70.9435 138.547 71.566C147.606 78.684 147.333 89.2619 147.261 90.9112C147.183 92.7049 146.339 101.863 138.222 108.45C137.033 109.414 130.874 113.839 122.168 113.29C116.289 112.92 111.99 110.439 109.884 108.971C105.7 106.056 103.553 102.522 97.1617 88.4673C93.6568 80.7606 92.0165 76.8642 90.9481 74.4111C81.6109 52.9755 73.0154 31.8228 65.1038 11.0037C59.2971 13.2324 53.492 15.4611 47.6853 17.6898C51.4993 27.4469 55.3117 37.204 59.1257 46.9611C56.0165 46.2264 53.3558 46.045 51.4368 46.0327C46.9004 46.002 43.4724 46.8858 41.4573 47.4191C38.8158 48.12 36.6725 48.9608 35.1348 49.6432Z" fill="white"/>
</svg>
